<svg width="130" height="130" viewBox="0 0 130 130" fill="none" xmlns="http://www.w3.org/2000/svg">
<circle cx="65" cy="65" r="65" fill="url(#paint0_linear_36_2)"/>
<path d="M39 90.2512V24.1127C39 21.4183 42.2762 20.0898 44.1527 22.0232L108.346 88.1617C110.192 90.0642 108.844 93.2512 106.193 93.2512H42C40.3431 93.2512 39 91.908 39 90.2512Z" fill="white" stroke="white"/>
<path d="M29.5909 53.4056C29.7042 53.339 29.8742 53.2756 30.1009 53.2156C30.3342 53.1556 30.5675 53.1256 30.8009 53.1256C31.1342 53.1256 31.4275 53.1756 31.6809 53.2756C31.9409 53.369 32.1075 53.519 32.1809 53.7256C32.3009 54.0723 32.4309 54.4756 32.5709 54.9356C32.7109 55.3956 32.8509 55.8723 32.9909 56.3656C33.1309 56.8523 33.2675 57.3356 33.4009 57.8156C33.5342 58.289 33.6509 58.709 33.7509 59.0756C33.6709 59.169 33.5509 59.2423 33.3909 59.2956C33.2309 59.3556 33.0409 59.3856 32.8209 59.3856C32.6609 59.3856 32.5242 59.3723 32.4109 59.3456C32.3042 59.319 32.2142 59.279 32.1409 59.2256C32.0742 59.1723 32.0175 59.1023 31.9709 59.0156C31.9309 58.929 31.8942 58.829 31.8609 58.7156L31.6809 58.0256H29.8709C29.8175 58.2256 29.7642 58.4323 29.7109 58.6456C29.6575 58.859 29.6042 59.0656 29.5509 59.2656C29.4575 59.299 29.3575 59.3256 29.2509 59.3456C29.1509 59.3723 29.0275 59.3856 28.8809 59.3856C28.5409 59.3856 28.2875 59.329 28.1209 59.2156C27.9609 59.0956 27.8809 58.9323 27.8809 58.7256C27.8809 58.6323 27.8942 58.539 27.9209 58.4456C27.9475 58.3523 27.9775 58.2423 28.0109 58.1156C28.0575 57.9356 28.1209 57.7123 28.2009 57.4456C28.2875 57.179 28.3809 56.8923 28.4809 56.5856C28.5809 56.2723 28.6875 55.9523 28.8009 55.6256C28.9142 55.299 29.0209 54.9923 29.1209 54.7056C29.2209 54.4123 29.3109 54.1523 29.3909 53.9256C29.4775 53.699 29.5442 53.5256 29.5909 53.4056ZM30.7909 54.6956C30.6975 54.9756 30.5909 55.289 30.4709 55.6356C30.3575 55.9756 30.2542 56.3223 30.1609 56.6756H31.4009C31.3075 56.3156 31.2109 55.9656 31.1109 55.6256C31.0175 55.279 30.9309 54.969 30.8509 54.6956H30.7909Z" fill="white"/>
<path d="M65.1829 103.094C65.2762 103.121 65.3962 103.141 65.5429 103.154C65.6896 103.161 65.8296 103.164 65.9629 103.164C66.2296 103.164 66.4496 103.111 66.6229 103.004C66.8029 102.891 66.8929 102.718 66.8929 102.484C66.8929 102.264 66.8196 102.108 66.6729 102.014C66.5262 101.921 66.3029 101.874 66.0029 101.874H65.1829V103.094ZM65.1829 100.654H65.9129C66.1996 100.654 66.4062 100.601 66.5329 100.494C66.6662 100.388 66.7329 100.231 66.7329 100.024C66.7329 99.8445 66.6562 99.7011 66.5029 99.5945C66.3562 99.4878 66.1329 99.4345 65.8329 99.4345C65.7329 99.4345 65.6162 99.4378 65.4829 99.4445C65.3562 99.4511 65.2562 99.4611 65.1829 99.4745V100.654ZM65.8329 104.504C65.7196 104.504 65.5862 104.501 65.4329 104.494C65.2796 104.488 65.1196 104.474 64.9529 104.454C64.7929 104.434 64.6329 104.408 64.4729 104.374C64.3129 104.348 64.1662 104.308 64.0329 104.254C63.6662 104.114 63.4829 103.871 63.4829 103.524V98.8545C63.4829 98.7145 63.5196 98.6078 63.5929 98.5345C63.6729 98.4545 63.7796 98.3911 63.9129 98.3445C64.1396 98.2645 64.4229 98.2078 64.7629 98.1745C65.1029 98.1345 65.4529 98.1145 65.8129 98.1145C66.6662 98.1145 67.3229 98.2578 67.7829 98.5445C68.2429 98.8311 68.4729 99.2745 68.4729 99.8745C68.4729 100.174 68.3862 100.434 68.2129 100.654C68.0396 100.868 67.8062 101.024 67.5129 101.124C67.8462 101.218 68.1229 101.388 68.3429 101.634C68.5696 101.881 68.6829 102.191 68.6829 102.564C68.6829 103.224 68.4362 103.714 67.9429 104.034C67.4562 104.348 66.7529 104.504 65.8329 104.504Z" fill="white"/>
<path d="M81.9256 46.9751C81.4123 46.9751 81.0189 47.1317 80.7456 47.4451C80.4723 47.7584 80.3356 48.2017 80.3356 48.7751C80.3356 49.3551 80.4856 49.8017 80.7856 50.1151C81.0923 50.4284 81.5023 50.5851 82.0156 50.5851C82.2889 50.5851 82.5189 50.5484 82.7056 50.4751C82.8989 50.4017 83.0823 50.3184 83.2556 50.2251C83.3689 50.3184 83.4556 50.4317 83.5156 50.5651C83.5823 50.6917 83.6156 50.8417 83.6156 51.0151C83.6156 51.2884 83.4623 51.5217 83.1556 51.7151C82.8556 51.9017 82.3956 51.9951 81.7756 51.9951C81.3289 51.9951 80.9089 51.9317 80.5156 51.8051C80.1223 51.6784 79.7789 51.4851 79.4856 51.2251C79.1923 50.9584 78.9589 50.6251 78.7856 50.2251C78.6189 49.8184 78.5356 49.3351 78.5356 48.7751C78.5356 48.2551 78.6156 47.7984 78.7756 47.4051C78.9423 47.0051 79.1656 46.6684 79.4456 46.3951C79.7323 46.1217 80.0656 45.9151 80.4456 45.7751C80.8256 45.6351 81.2323 45.5651 81.6656 45.5651C82.2789 45.5651 82.7523 45.6651 83.0856 45.8651C83.4256 46.0651 83.5956 46.3217 83.5956 46.6351C83.5956 46.8084 83.5523 46.9584 83.4656 47.0851C83.3789 47.2117 83.2789 47.3117 83.1656 47.3851C82.9923 47.2717 82.8056 47.1751 82.6056 47.0951C82.4123 47.0151 82.1856 46.9751 81.9256 46.9751Z" fill="white"/>
<defs>
<linearGradient id="paint0_linear_36_2" x1="65" y1="0" x2="65" y2="130" gradientUnits="userSpaceOnUse">
<stop stop-color="#B544FF"/>
<stop offset="1" stop-color="#EE73FF"/>
</linearGradient>
</defs>
</svg>
